<svg width="16" height="16" viewBox="0 0 16 16" fill="none" xmlns="http://www.w3.org/2000/svg">
<path d="M13.5904 11.3162C14.3983 9.95428 14.6812 8.34423 14.3861 6.78843C14.0909 5.23262 13.2379 3.83808 11.9873 2.86667C10.7367 1.89525 9.1745 1.4138 7.59404 1.5127C6.01357 1.6116 4.52357 2.28406 3.40382 3.4038C2.28407 4.52354 1.61161 6.01354 1.5127 7.59401C1.41379 9.17447 1.89524 10.7367 2.86665 11.9873C3.83805 13.2379 5.23259 14.0909 6.7884 14.3861C8.3442 14.6812 9.95425 14.3983 11.3162 13.5904L11.3162 13.5903L13.5621 14.232C13.655 14.2586 13.7534 14.2598 13.8469 14.2355C13.9405 14.2113 14.0258 14.1625 14.0942 14.0942C14.1625 14.0258 14.2113 13.9405 14.2355 13.8469C14.2598 13.7534 14.2586 13.655 14.232 13.5621L13.5903 11.3162L13.5904 11.3162Z" stroke="#FAAA52" stroke-width="1.5" stroke-linecap="round" stroke-linejoin="round"/>
<path d="M6 8H6.82584" stroke="#FAAA52" stroke-width="1.5" stroke-linecap="round" stroke-linejoin="round"/>
<path d="M9.4 8H10.2258" stroke="#FAAA52" stroke-width="1.5" stroke-linecap="round" stroke-linejoin="round"/>
</svg>
