<svg width="19" height="22" viewBox="0 0 19 22" fill="none" xmlns="http://www.w3.org/2000/svg">
<path opacity="0.8" d="M17.7925 3.79401L9.54251 0.0805883C9.42433 0.0274665 9.29624 0 9.16667 0C9.03711 0 8.90901 0.0274665 8.79084 0.0805883L0.540837 3.79401C0.379723 3.86643 0.242967 3.98386 0.147019 4.13217C0.0510705 4.28049 1.82488e-05 4.45336 3.14161e-06 4.63001V13.2109C-0.000753671 13.8638 0.135235 14.5095 0.39921 15.1066C0.663185 15.7037 1.04929 16.2389 1.53267 16.6778L6.116 20.8211C6.95095 21.5797 8.03858 22 9.16667 22C10.2948 22 11.3824 21.5797 12.2173 20.8211L16.8007 16.6778C17.2841 16.2389 17.6702 15.7037 17.9341 15.1066C18.1981 14.5095 18.3341 13.8638 18.3333 13.2109V4.63001C18.3333 4.45336 18.2823 4.28049 18.1863 4.13217C18.0904 3.98386 17.9536 3.86643 17.7925 3.79401ZM13.4842 8.89801L8.90084 13.4813C8.72894 13.6532 8.49582 13.7497 8.25276 13.7497C8.00969 13.7497 7.77657 13.6532 7.60467 13.4813L4.85467 10.7313C4.68769 10.5585 4.5953 10.3269 4.59739 10.0866C4.59948 9.84621 4.69588 9.6163 4.86584 9.44634C5.0358 9.27638 5.26571 9.17998 5.50605 9.17789C5.7464 9.1758 5.97795 9.2682 6.15084 9.43517L8.25001 11.5371L12.1853 7.60184C12.3581 7.43486 12.5897 7.34247 12.83 7.34456C13.0704 7.34664 13.3003 7.44305 13.4703 7.61301C13.6402 7.78296 13.7366 8.01288 13.7387 8.25322C13.7408 8.49357 13.6484 8.72512 13.4814 8.89801H13.4842Z" fill="#FAAA52"/>
</svg>
