<svg width="26" height="22" viewBox="0 0 26 22" fill="none" xmlns="http://www.w3.org/2000/svg">
<path opacity="0.8" d="M16.2342 10.4009L13.787 15.287C13.4919 15.8763 12.6373 15.8576 12.3667 15.2563L9.56989 9.05045L8.09413 12.5739L3.2764 12.5714L11.9395 21.5186C12.5612 22.1605 13.5778 22.1605 14.2 21.5186L22.8631 12.5714L17.3578 12.5716L16.2342 10.4009ZM23.2471 1.51553C20.5775 -0.791505 16.4944 -0.375081 14.0389 2.15686L13.0715 3.1552L12.104 2.15686C9.64847 -0.375081 5.5674 -0.791505 2.89629 1.51553C0.0753933 3.95318 -0.245297 8.13216 1.88314 11H7.03973L8.80426 6.76454C9.07476 6.13204 9.96621 6.12026 10.255 6.74612L13.1137 13.1005L15.5235 8.28807C15.8125 7.71107 16.6423 7.71107 16.9315 8.28807L18.2904 11.0012H24.2573C26.3902 8.13216 26.0661 3.95318 23.2471 1.51553Z" fill="#FAAA52"/>
</svg>
