<svg width="23" height="21" viewBox="0 0 23 21" fill="none" xmlns="http://www.w3.org/2000/svg">
<path d="M20.5 4.13314H16.3325V3.2998C16.3318 2.637 16.0681 2.00155 15.5994 1.53288C15.1308 1.0642 14.4953 0.800563 13.8325 0.799805H8.83252C8.16971 0.800563 7.53427 1.0642 7.06559 1.53288C6.59691 2.00155 6.33328 2.637 6.33252 3.2998V4.13314H2.16667C1.72479 4.13364 1.30116 4.3094 0.988713 4.62185C0.676262 4.9343 0.500505 5.35793 0.5 5.7998V19.1331C0.500505 19.575 0.676262 19.9986 0.988713 20.3111C1.30116 20.6235 1.72479 20.7993 2.16667 20.7998H20.5C20.9419 20.7993 21.3655 20.6235 21.678 20.3111C21.9904 19.9986 22.1662 19.575 22.1667 19.1331V5.7998C22.1662 5.35793 21.9904 4.9343 21.678 4.62185C21.3655 4.3094 20.9419 4.13364 20.5 4.13314ZM7.99919 3.2998C7.99944 3.07887 8.08732 2.86705 8.24354 2.71083C8.39977 2.5546 8.61158 2.46672 8.83252 2.46647H13.8325C14.0535 2.46672 14.2653 2.5546 14.4215 2.71083C14.5777 2.86705 14.6656 3.07887 14.6659 3.2998V4.13314H7.99919V3.2998ZM14.2492 13.2998H12.1659V15.3831C12.1659 15.6042 12.0781 15.8161 11.9218 15.9724C11.7655 16.1287 11.5535 16.2165 11.3325 16.2165C11.1115 16.2165 10.8995 16.1287 10.7433 15.9724C10.587 15.8161 10.4992 15.6042 10.4992 15.3831V13.2998H8.41585C8.19484 13.2998 7.98288 13.212 7.8266 13.0557C7.67032 12.8994 7.58252 12.6875 7.58252 12.4665C7.58252 12.2455 7.67032 12.0335 7.8266 11.8772C7.98288 11.7209 8.19484 11.6331 8.41585 11.6331H10.4992V9.5498C10.4992 9.32879 10.587 9.11683 10.7433 8.96055C10.8995 8.80427 11.1115 8.71647 11.3325 8.71647C11.5535 8.71647 11.7655 8.80427 11.9218 8.96055C12.0781 9.11683 12.1659 9.32879 12.1659 9.5498V11.6331H14.2492C14.4702 11.6331 14.6822 11.7209 14.8384 11.8772C14.9947 12.0335 15.0825 12.2455 15.0825 12.4665C15.0825 12.6875 14.9947 12.8994 14.8384 13.0557C14.6822 13.212 14.4702 13.2998 14.2492 13.2998Z" fill="#FAAA52"/>
</svg>
