<svg width="16" height="14" viewBox="0 0 16 14" fill="none" xmlns="http://www.w3.org/2000/svg">
<path d="M8.94511 0.250176C5.12761 0.145176 2.00011 3.21268 2.00011 7.00018H0.657614C0.320114 7.00018 0.155114 7.40518 0.395114 7.63768L2.48761 9.73768C2.63761 9.88768 2.87011 9.88768 3.02011 9.73768L5.11261 7.63768C5.34511 7.40518 5.18011 7.00018 4.84261 7.00018H3.50011C3.50011 4.07518 5.88511 1.71268 8.82511 1.75018C11.6151 1.78768 13.9626 4.13518 14.0001 6.92518C14.0376 9.85768 11.6751 12.2502 8.75011 12.2502C7.54261 12.2502 6.42511 11.8377 5.54011 11.1402C5.24011 10.9077 4.82011 10.9302 4.55011 11.2002C4.23511 11.5152 4.25761 12.0477 4.61011 12.3177C5.75011 13.2177 7.18261 13.7502 8.75011 13.7502C12.5376 13.7502 15.6051 10.6227 15.5001 6.80518C15.4026 3.28768 12.4626 0.347676 8.94511 0.250176ZM8.56261 4.00018C8.25511 4.00018 8.00011 4.25518 8.00011 4.56268V7.32268C8.00011 7.58518 8.14261 7.83268 8.36761 7.96768L10.7076 9.35518C10.9776 9.51268 11.3226 9.42268 11.4801 9.16018C11.6376 8.89018 11.5476 8.54518 11.2851 8.38768L9.12511 7.10518V4.55518C9.12511 4.25518 8.87011 4.00018 8.56261 4.00018Z" fill="#7297E7"/>
</svg>
